<svg xmlns="http://www.w3.org/2000/svg" viewBox="0 0 400 400" width="400" height="400">
  <defs>
    <linearGradient id="g1" x1="0%" y1="0%" x2="100%" y2="100%">
      <stop offset="0%" stop-color="#0057FF"/>
      <stop offset="100%" stop-color="#3a7bff"/>
    </linearGradient>
    <linearGradient id="g2" x1="0%" y1="0%" x2="100%" y2="100%">
      <stop offset="0%" stop-color="#3a7bff"/>
      <stop offset="100%" stop-color="#93c5ff"/>
    </linearGradient>
    <filter id="glow">
      <feGaussianBlur stdDeviation="2.5" result="b"/>
      <feMerge><feMergeNode in="b"/><feMergeNode in="SourceGraphic"/></feMerge>
    </filter>
    <filter id="glowStrong">
      <feGaussianBlur stdDeviation="5" result="b"/>
      <feMerge><feMergeNode in="b"/><feMergeNode in="SourceGraphic"/></feMerge>
    </filter>
  </defs>
  <rect width="400" height="400" fill="#ffffff" rx="24"/>
  <g opacity="0.045" stroke="#0057FF" stroke-width="0.8">
    <line x1="0" y1="80" x2="400" y2="80"/><line x1="0" y1="160" x2="400" y2="160"/>
    <line x1="0" y1="240" x2="400" y2="240"/><line x1="0" y1="320" x2="400" y2="320"/>
    <line x1="80" y1="0" x2="80" y2="400"/><line x1="160" y1="0" x2="160" y2="400"/>
    <line x1="240" y1="0" x2="240" y2="400"/><line x1="320" y1="0" x2="320" y2="400"/>
  </g>
  <polyline points="350,28 382,28 382,60" fill="none" stroke="#0057FF" stroke-width="2" opacity="0.3"/>
  <polyline points="50,372 18,372 18,340" fill="none" stroke="#0057FF" stroke-width="2" opacity="0.3"/>
  <rect x="152" y="115" width="9" height="82" rx="4" fill="#dde0e8"/>
  <rect x="152" y="190" width="74" height="9" rx="4" fill="#dde0e8"/>
  <line x1="226" y1="199" x2="238" y2="262" stroke="#dde0e8" stroke-width="7" stroke-linecap="round"/>
  <line x1="160" y1="199" x2="148" y2="262" stroke="#dde0e8" stroke-width="7" stroke-linecap="round"/>
  <circle cx="240" cy="267" r="17" fill="none" stroke="#dde0e8" stroke-width="6"/>
  <circle cx="240" cy="267" r="4" fill="#dde0e8"/>
  <circle cx="155" cy="272" r="64" fill="none" stroke="#eceef2" stroke-width="14"/>
  <circle cx="155" cy="272" r="64" fill="none" stroke="url(#g1)" stroke-width="2.5" filter="url(#glow)"/>
  <g stroke="url(#g2)" stroke-width="1.8" opacity="0.4">
    <line x1="155" y1="208" x2="155" y2="336"/>
    <line x1="91" y1="272" x2="219" y2="272"/>
    <line x1="110" y1="227" x2="200" y2="317"/>
    <line x1="200" y1="227" x2="110" y2="317"/>
  </g>
  <circle cx="155" cy="272" r="11" fill="white" stroke="url(#g1)" stroke-width="2.5" filter="url(#glow)"/>
  <polygon points="161,251 150,269 158,269 150,290 167,265 158,265" fill="url(#g1)" filter="url(#glowStrong)"/>
  <g fill="none" stroke="#0057FF" stroke-linecap="round" opacity="0.85">
    <path d="M 212 218 A 20 20 0 0 1 232 238" stroke-width="2.5"/>
    <path d="M 206 210 A 30 30 0 0 1 236 240" stroke-width="2" opacity="0.6"/>
    <path d="M 200 202 A 40 40 0 0 1 240 242" stroke-width="1.5" opacity="0.35"/>
  </g>
  <circle cx="222" cy="228" r="3.5" fill="#0057FF" filter="url(#glow)"/>
  <text x="32" y="58" font-family="'Courier New',monospace" font-size="11" font-weight="700" fill="#0057FF" letter-spacing="3" opacity="0.7">SDA</text>
  <line x1="32" y1="64" x2="74" y2="64" stroke="#0057FF" stroke-width="0.8" opacity="0.3"/>
  <text x="200" y="354" font-family="'Courier New',monospace" font-size="22" font-weight="700" fill="#0f1117" letter-spacing="5" text-anchor="middle">SMARTDRIVE</text>
  <text x="200" y="378" font-family="'Courier New',monospace" font-size="13" font-weight="400" fill="url(#g1)" letter-spacing="10" text-anchor="middle">ASSIST</text>
</svg>
