<svg xmlns="http://www.w3.org/2000/svg" viewBox="0 0 32 32" width="32" height="32">
  <defs>
    <linearGradient id="fg" x1="0%" y1="0%" x2="100%" y2="100%">
      <stop offset="0%" stop-color="#0057FF"/>
      <stop offset="100%" stop-color="#3a7bff"/>
    </linearGradient>
    <filter id="fglow">
      <feGaussianBlur stdDeviation="0.6" result="b"/>
      <feMerge><feMergeNode in="b"/><feMergeNode in="SourceGraphic"/></feMerge>
    </filter>
  </defs>
  <rect width="32" height="32" fill="#ffffff" rx="7"/>
  <rect width="32" height="32" fill="none" stroke="#dde0e8" stroke-width="1" rx="7"/>
  <circle cx="13" cy="20" r="9" fill="none" stroke="#eceef2" stroke-width="3"/>
  <circle cx="13" cy="20" r="9" fill="none" stroke="url(#fg)" stroke-width="1.5" filter="url(#fglow)"/>
  <g stroke="#3a7bff" stroke-width="0.8" opacity="0.4">
    <line x1="13" y1="11" x2="13" y2="29"/>
    <line x1="4" y1="20" x2="22" y2="20"/>
    <line x1="6.6" y1="13.6" x2="19.4" y2="26.4"/>
    <line x1="19.4" y1="13.6" x2="6.6" y2="26.4"/>
  </g>
  <circle cx="13" cy="20" r="2" fill="white" stroke="url(#fg)" stroke-width="1.2" filter="url(#fglow)"/>
  <polygon points="14.2,13.2 11,19.5 13.5,19.5 11,26 16.8,18.8 13.8,18.8" fill="url(#fg)" filter="url(#fglow)"/>
  <g fill="none" stroke="#0057FF" stroke-linecap="round" opacity="0.85">
    <path d="M 22.5 9.5 A 3.2 3.2 0 0 1 25.7 12.7" stroke-width="1.3"/>
    <path d="M 21 7.8 A 5.5 5.5 0 0 1 26.7 13.5" stroke-width="1" opacity="0.5"/>
  </g>
  <circle cx="24" cy="11.5" r="1.3" fill="#0057FF" filter="url(#fglow)"/>
</svg>
